<svg xmlns="http://www.w3.org/2000/svg" width="50" height="51" viewBox="0 0 50 51" fill="none">
	<g clip-path="url(#clip0_159_849)">
		<path d="M49.9528 49.5074L42.6286 30.2135C42.5677 30.0533 42.4527 29.9195 42.3034 29.8354L34.502 25.4403L36.7796 21.829C38.1775 19.6108 38.9165 17.0474 38.9165 14.416C38.9165 6.74266 32.6738 0.5 25.0005 0.5C17.3271 0.5 11.0845 6.74266 11.0845 14.416C11.0845 17.0481 11.8237 19.6116 13.2224 21.8292L15.4994 25.4405L7.69777 29.8354C7.54843 29.9195 7.43331 30.0533 7.37248 30.2135L0.0482708 49.5074C-0.00504782 49.6481 -0.0137492 49.8018 0.0233493 49.9477C0.0604479 50.0935 0.141547 50.2243 0.255624 50.3225C0.3697 50.4206 0.511222 50.4812 0.660953 50.4961C0.810684 50.5109 0.961362 50.4793 1.09251 50.4056L12.8667 43.7722L24.6409 50.4056C24.7506 50.4674 24.8745 50.4998 25.0004 50.4998C25.1264 50.4998 25.2502 50.4674 25.3599 50.4056L37.1341 43.7722L48.9083 50.4056C49.0395 50.4795 49.1902 50.5113 49.34 50.4965C49.4898 50.4817 49.6314 50.421 49.7455 50.3228C49.8597 50.2247 49.9408 50.0938 49.9779 49.9478C50.015 49.8019 50.0062 49.6482 49.9528 49.5074ZM25.733 38.46C26.1988 38.2954 26.5952 37.9782 26.8581 37.5599C26.8953 37.5013 33.1304 27.6152 33.1304 27.6152L36.3061 42.5573L25.733 48.514V38.46ZM14.4614 21.0476C13.2105 19.0642 12.5494 16.7711 12.5494 14.4159C12.5494 7.55028 18.135 1.96474 25.0006 1.96474C31.8662 1.96474 37.4517 7.55028 37.4517 14.4159C37.4517 16.7706 36.7908 19.0639 35.5407 21.0476C35.4429 21.2026 25.7924 36.5065 25.624 36.7708C25.6224 36.7731 25.6211 36.7754 25.6196 36.7777C25.4838 36.9925 25.2524 37.1209 25.0006 37.1209C24.7485 37.1209 24.5161 36.9919 24.3801 36.778C24.2822 36.6229 14.6124 21.2887 14.4647 21.053L14.4614 21.0476ZM8.64777 30.9814L15.4755 27.135L14.286 32.7311C14.2633 32.8379 14.2647 32.9484 14.2902 33.0546C14.3157 33.1608 14.3646 33.2599 14.4333 33.3447C14.5021 33.4296 14.5889 33.498 14.6875 33.5449C14.7861 33.5918 14.8939 33.6161 15.0031 33.616C15.1708 33.6158 15.3333 33.5581 15.4635 33.4525C15.5938 33.3469 15.6839 33.1998 15.7187 33.0358L16.8708 27.6157L23.1424 37.5618C23.4062 37.979 23.8026 38.2953 24.2679 38.4599V48.5142L13.695 42.5574L15.1098 35.9013C15.1298 35.8072 15.1311 35.7101 15.1135 35.6155C15.096 35.521 15.06 35.4308 15.0077 35.3501C14.9553 35.2694 14.8875 35.1999 14.8083 35.1454C14.729 35.0909 14.6398 35.0526 14.5457 35.0325C14.4516 35.0125 14.3545 35.0111 14.2599 35.0286C14.1653 35.0461 14.0751 35.0821 13.9944 35.1345C13.9137 35.1869 13.8441 35.2546 13.7897 35.3339C13.7352 35.4132 13.6969 35.5025 13.677 35.5966L12.219 42.4556L2.13547 48.1366L8.64777 30.9814ZM37.782 42.4557L34.5258 27.1349L41.3533 30.9814L47.8657 48.1366L37.782 42.4557Z" fill="#34B26F" />
		<path d="M33.0568 14.416C33.0568 9.97363 29.4425 6.35938 25.0001 6.35938C20.5577 6.35938 16.9435 9.97363 16.9435 14.416C16.9435 18.8584 20.5577 22.4727 25.0001 22.4727C29.4425 22.4727 33.0568 18.8584 33.0568 14.416ZM18.4083 14.416C18.4083 10.7812 21.3654 7.82422 25.0001 7.82422C28.6349 7.82422 31.5919 10.7812 31.5919 14.416C31.5919 18.0508 28.6349 21.0078 25.0001 21.0078C21.3654 21.0078 18.4083 18.0508 18.4083 14.416Z" fill="#34B26F" />
		<path d="M30.1271 14.416C30.1271 11.5891 27.8271 9.28906 25.0001 9.28906C22.1732 9.28906 19.8732 11.5891 19.8732 14.416C19.8732 17.243 22.1732 19.543 25.0001 19.543C27.8271 19.543 30.1271 17.243 30.1271 14.416ZM21.338 14.416C21.338 12.3967 22.9808 10.7539 25.0001 10.7539C27.0195 10.7539 28.6622 12.3967 28.6622 14.416C28.6622 16.4354 27.0195 18.0781 25.0001 18.0781C22.9808 18.0781 21.338 16.4354 21.338 14.416Z" fill="#34B26F" />
	</g>
	<defs>
		<clipPath id="clip0_159_849">
			<rect width="50" height="50" fill="white" transform="translate(0 0.5)" />
		</clipPath>
	</defs>
</svg>